<svg id="Filled" height="512" viewBox="0 0 512 512" width="512" xmlns="http://www.w3.org/2000/svg"><path d="m40 408c0-123.712 78.8-208 176-208s176 84.288 176 208c0 0-80 48-176 48-88 0-176-48-176-48z" fill="#f7d1b2"/><circle cx="216" cy="112" fill="#f7d1b2" r="88"/><circle cx="368" cy="384" fill="#3cb4d7" r="104"/><path d="m312 392h48v48a8 8 0 0 0 16 0v-48h48a8 8 0 0 0 0-16h-48v-48a8 8 0 0 0 -16 0v48h-48a8 8 0 0 0 0 16z"/><path d="m36.169 415.023c3.666 2 90.814 48.977 179.831 48.977a332.248 332.248 0 0 0 67.025-7.122 111.978 111.978 0 1 0 84.975-184.878c-2.142 0-4.268.066-6.38.186-25.414-38.012-61.228-63.9-102.114-74.624a96 96 0 1 0 -86.978.017c-33.16 8.7-63.155 27.408-87.009 54.772-34.512 39.59-53.519 94.867-53.519 155.649a8 8 0 0 0 4.169 7.023zm331.831-127.023a96 96 0 1 1 -96 96 96.108 96.108 0 0 1 96-96zm-232-176a80 80 0 1 1 80 80 80.091 80.091 0 0 1 -80-80zm-38.42 150.865c30.842-35.38 72.898-54.865 118.42-54.865 50.71 0 96.7 24.14 127.817 66.637a111.947 111.947 0 0 0 -71.217 167.976 312.1 312.1 0 0 1 -56.6 5.387c-74.188 0-149.593-35.583-167.958-44.844.971-54.992 18.475-104.656 49.538-140.291z"/></svg>